<?xml version="1.0" standalone="no"?>
<!DOCTYPE svg PUBLIC "-//W3C//DTD SVG 20010904//EN"
 "http://www.w3.org/TR/2001/REC-SVG-20010904/DTD/svg10.dtd">
<svg version="1.0" xmlns="http://www.w3.org/2000/svg"
 width="1143.000000pt" height="1114.000000pt" viewBox="0 0 1143.000000 1114.000000"
 preserveAspectRatio="xMidYMid meet">

<g transform="translate(0.000000,1114.000000) scale(0.100000,-0.100000)"
fill="#000000" stroke="none">
<path d="M5245 10444 c-684 -67 -1155 -193 -1700 -454 -1149 -550 -2028 -1550
-2429 -2761 -146 -444 -219 -868 -233 -1354 -35 -1286 456 -2520 1367 -3435
713 -717 1663 -1196 2645 -1334 269 -38 324 -41 690 -41 405 0 515 9 835 66
1113 200 2116 796 2829 1684 559 696 901 1518 1006 2420 19 159 32 633 19 643
-5 4 -90 6 -190 4 l-181 -3 -6 -217 c-20 -669 -162 -1247 -447 -1819 -415
-836 -1091 -1517 -1920 -1937 -479 -243 -968 -386 -1525 -446 -55 -6 -199 -13
-320 -17 -730 -20 -1457 149 -2105 489 -705 370 -1308 942 -1713 1626 -806
1358 -802 3060 10 4411 661 1101 1788 1860 3043 2050 255 38 360 45 670 45
323 0 449 -10 735 -59 821 -141 1608 -537 2220 -1115 387 -366 717 -818 934
-1283 l50 -105 167 73 c91 40 170 77 175 82 11 11 -121 282 -221 453 -207 356
-444 664 -735 956 -365 367 -742 641 -1200 874 -521 265 -997 408 -1610 486
-123 15 -750 29 -860 18z"/>
<path d="M5445 8644 c-497 -39 -928 -164 -1310 -382 -829 -473 -1336 -1295
-1436 -2327 -17 -180 -6 -593 21 -770 193 -1267 1033 -2192 2234 -2460 471
-105 1012 -97 1466 21 603 158 1116 481 1501 944 84 101 179 227 179 238 0 10
-279 197 -284 190 -2 -1 -32 -39 -67 -83 -160 -199 -197 -241 -273 -317 -306
-303 -703 -521 -1141 -629 -241 -59 -371 -73 -680 -73 -183 -1 -313 4 -375 12
-625 89 -1122 334 -1525 753 -371 386 -593 851 -688 1438 -29 186 -32 681 -4
861 97 626 337 1118 738 1512 431 424 966 663 1609 718 449 39 942 -39 1332
-211 291 -128 571 -321 782 -538 l79 -81 -417 -271 -416 -270 -68 59 c-104 89
-193 149 -307 207 -436 222 -1002 231 -1452 24 -277 -127 -518 -354 -681 -644
-261 -461 -306 -1083 -116 -1593 92 -245 204 -423 384 -603 248 -251 525 -387
888 -434 211 -28 397 -17 622 36 165 39 223 60 360 130 137 71 202 117 335
241 120 111 277 291 263 303 -22 18 -290 195 -296 195 -5 0 -35 -37 -67 -82
-209 -292 -539 -464 -930 -485 -654 -33 -1144 364 -1287 1045 -20 93 -23 137
-23 327 0 194 3 232 23 324 99 443 316 743 657 912 208 103 450 145 698 121
366 -34 620 -171 853 -458 l75 -93 177 116 c97 64 312 205 477 313 165 108
402 264 528 346 l227 150 -66 90 c-114 152 -177 225 -310 355 -231 225 -426
365 -704 505 -417 210 -835 310 -1330 318 -113 2 -227 2 -255 0z"/>
</g>
</svg>
